<?xml version="1.0" encoding="utf-8"?>
<!-- Generator: Adobe Illustrator 22.1.0, SVG Export Plug-In . SVG Version: 6.00 Build 0)  -->
<svg version="1.1" id="Layer_1" xmlns="http://www.w3.org/2000/svg" xmlns:xlink="http://www.w3.org/1999/xlink" x="0px" y="0px"
	 viewBox="0 0 451 419" style="enable-background:new 0 0 451 419;" xml:space="preserve">
<style type="text/css">
	.st0{fill:#FFFFFF;stroke:#000000;stroke-miterlimit:10;}
</style>
<g>
	<path class="st0" d="M398.9,53.8c1.4-2.3,2-3.7,2-3.7S400.2,51.4,398.9,53.8z"/>
	<path class="st0" d="M361.9,186.1c-26-13.4,25.9-112,37-132.3c-6,9.6-26.5,35.4-79,44.3c-57.3,9.7-66.4-35.8-67.8-46.7
		c1.1,12.7,4.2,74.8-36.2,93.7c-59.3,27.7-142-50-142-50s42,146,7,162s26,105,26,105s45-48,57-78s52,96,52,96s29-56,30-115
		s107,63,107,63S390.9,201.1,361.9,186.1z M144,218c-10.5,0-19-8.5-19-19s8.5-19,19-19s19,8.5,19,19S154.5,218,144,218z"/>
	<path class="st0" d="M252.1,51.4c-0.1-1.5-0.2-2.3-0.2-2.3S252,49.9,252.1,51.4z"/>
</g>
</svg>
